<svg version="1.1" id="Layer_1" xmlns="http://www.w3.org/2000/svg" xmlns:xlink="http://www.w3.org/1999/xlink" x="0px" y="0px" viewBox="0 0 62.4 65.5" style="enable-background:new 0 0 62.4 65.5;" xml:space="preserve">
 <style type="text/css">
  .st0{fill:url(#SVGID_1_);}
 </style>
 <g>
  <g>
   <linearGradient id="SVGID_1_" gradientUnits="userSpaceOnUse" x1="-1.804" y1="21.286" x2="63.995" y2="49.216" gradientTransform="matrix(1 0 0 -1 0 68)">
    <stop offset="0.15" style="stop-color:#94C12E">
    </stop>
    <stop offset="0.186" style="stop-color:#8DC137">
    </stop>
    <stop offset="0.245" style="stop-color:#7BC04F">
    </stop>
    <stop offset="0.32" style="stop-color:#5EBF77">
    </stop>
    <stop offset="0.407" style="stop-color:#36BDAE">
    </stop>
    <stop offset="0.5" style="stop-color:#04BBF1">
    </stop>
    <stop offset="0.586" style="stop-color:#05B7ED">
    </stop>
    <stop offset="0.674" style="stop-color:#08ABE0">
    </stop>
    <stop offset="0.764" style="stop-color:#0C98CC">
    </stop>
    <stop offset="0.855" style="stop-color:#117DAF">
    </stop>
    <stop offset="0.946" style="stop-color:#185B8A">
    </stop>
    <stop offset="1" style="stop-color:#1D4370">
    </stop>
   </linearGradient>
   <path class="st0" d="M43.4,0c-8.8,0-16.3,5.6-18.3,14.2c-0.4,1.9-0.7,4.2-0.7,7.5v6.4H38V13.6h10.7v23.5
			c7.9-2.3,13.6-9.6,13.6-18.2C62.4,8.3,54,0,43.4,0z M18.8,65.5c8.8,0,16.4-5.6,18.4-14.2c0.4-1.8,0.7-4.2,0.7-7.5v-6.4H24.4v14.5
			H13.6V28.3C5.8,30.7,0,37.9,0,46.5C0,57.7,7.7,65.5,18.8,65.5z">
   </path>
  </g>
 </g>
</svg>